<svg width="41" height="24" viewBox="0 0 41 24" fill="none" xmlns="http://www.w3.org/2000/svg">
<path d="M21.1517 9.873C21.8864 9.42833 22.7371 9.09967 23.7037 8.887C24.6897 8.67433 25.7144 8.568 26.7777 8.568C27.7831 8.568 28.5854 8.70333 29.1847 8.974C29.8034 9.24467 30.2674 9.60233 30.5767 10.047C30.9054 10.4723 31.1181 10.946 31.2147 11.468C31.3307 11.99 31.3887 12.512 31.3887 13.034C31.3887 14.194 31.3597 15.325 31.3017 16.427C31.2437 17.529 31.2147 18.573 31.2147 19.559C31.2147 20.2743 31.2437 20.951 31.3017 21.589C31.3597 22.227 31.4661 22.8167 31.6207 23.358H29.9097L29.3007 21.328H29.1557C28.9817 21.5987 28.7594 21.8693 28.4887 22.14C28.2374 22.3913 27.9281 22.6233 27.5607 22.836C27.1934 23.0293 26.7681 23.1937 26.2847 23.329C25.8014 23.4643 25.2504 23.532 24.6317 23.532C24.0131 23.532 23.4331 23.4353 22.8917 23.242C22.3697 23.0487 21.9154 22.778 21.5287 22.43C21.1421 22.0627 20.8327 21.6277 20.6007 21.125C20.3881 20.6223 20.2817 20.052 20.2817 19.414C20.2817 18.5633 20.4557 17.8577 20.8037 17.297C21.1517 16.717 21.6351 16.2627 22.2537 15.934C22.8917 15.586 23.6457 15.3443 24.5157 15.209C25.4051 15.0543 26.3814 14.977 27.4447 14.977C27.7154 14.977 27.9764 14.977 28.2277 14.977C28.4984 14.977 28.7691 14.9963 29.0397 15.035C29.0977 14.455 29.1267 13.933 29.1267 13.469C29.1267 12.4057 28.9141 11.6613 28.4887 11.236C28.0634 10.8107 27.2901 10.598 26.1687 10.598C25.8401 10.598 25.4824 10.627 25.0957 10.685C24.7284 10.7237 24.3417 10.7913 23.9357 10.888C23.5491 10.9653 23.1721 11.0717 22.8047 11.207C22.4567 11.323 22.1474 11.4583 21.8767 11.613L21.1517 9.873ZM25.2697 21.502C25.8111 21.502 26.2944 21.4343 26.7197 21.299C27.1451 21.1443 27.5124 20.9607 27.8217 20.748C28.1311 20.516 28.3824 20.2647 28.5757 19.994C28.7884 19.7233 28.9431 19.4623 29.0397 19.211V16.804C28.7691 16.7847 28.4887 16.775 28.1987 16.775C27.9281 16.7557 27.6574 16.746 27.3867 16.746C26.7874 16.746 26.1977 16.7847 25.6177 16.862C25.0571 16.92 24.5544 17.0457 24.1097 17.239C23.6844 17.413 23.3364 17.6643 23.0657 17.993C22.8144 18.3023 22.6887 18.6987 22.6887 19.182C22.6887 19.8587 22.9304 20.4193 23.4137 20.864C23.8971 21.2893 24.5157 21.502 25.2697 21.502Z" fill="#EDEBE9"/>
<path d="M36.9015 19.733C36.9015 20.4097 37.0175 20.893 37.2495 21.183C37.4815 21.473 37.8101 21.618 38.2355 21.618C38.4868 21.618 38.7575 21.5987 39.0475 21.56C39.3375 21.5213 39.6661 21.4343 40.0335 21.299L40.2945 23.126C39.9851 23.2807 39.5501 23.4063 38.9895 23.503C38.4481 23.5997 37.9745 23.648 37.5685 23.648C36.6985 23.648 35.9831 23.4063 35.4225 22.923C34.8618 22.4203 34.5815 21.5793 34.5815 20.4V3H36.9015V19.733Z" fill="#EDEBE9"/>
<path d="M7.6131 21.6826C7.93568 21.8469 8.31938 21.9578 8.7642 22.0151C9.20244 22.0522 9.80705 21.9455 10.578 21.695C11.2273 21.484 11.8096 21.2051 12.325 20.8582C12.8337 20.491 13.2383 20.0791 13.5386 19.6227C13.8526 19.1393 14.0555 18.6248 14.1473 18.079C14.2326 17.5129 14.1763 16.9256 13.9786 16.3169C13.7149 15.5053 13.2404 14.9081 12.5552 14.5251C11.8903 14.1355 11.1132 13.8496 10.2241 13.6674C9.35523 13.4787 8.41866 13.3232 7.41438 13.2008C6.41009 13.0785 5.4436 12.8654 4.51491 12.5615C3.59991 12.2308 2.76354 11.7623 2.0058 11.1561C1.26176 10.523 0.69856 9.61813 0.316202 8.44135C0.0393232 7.58921 -0.0557213 6.77892 0.0310689 6.01049C0.117859 5.24206 0.359346 4.53552 0.755531 3.89088C1.172 3.23964 1.72618 2.66703 2.41806 2.17305C3.10335 1.65878 3.92279 1.24673 4.87639 0.936885C6.11403 0.534751 7.27304 0.270321 8.35343 0.143595C9.44751 -0.0100129 10.3349 -0.0403815 11.0156 0.052489C11.1276 0.397405 11.229 0.813077 11.3198 1.29951C11.4243 1.75905 11.515 2.24548 11.5921 2.75879C11.6894 3.26551 11.7733 3.76538 11.8438 4.2584C11.9077 4.73113 11.9551 5.15314 11.986 5.52443L11.1947 5.78153L8.62262 2.00764C8.20468 1.96399 7.69847 1.99388 7.104 2.09731C6.52983 2.19415 5.92825 2.34475 5.29929 2.54911C4.26454 2.88532 3.52827 3.4498 3.09048 4.24255C2.6461 5.01501 2.59202 5.91862 2.92823 6.95336C3.19852 7.78522 3.66942 8.40609 4.34095 8.81597C5.03277 9.21926 5.82654 9.52213 6.72228 9.72457C7.61801 9.92702 8.56117 10.1028 9.55175 10.252C10.556 10.3743 11.5225 10.5874 12.4512 10.8913C13.3799 11.1952 14.2097 11.6434 14.9405 12.2359C15.6917 12.8218 16.2486 13.6727 16.6111 14.7886C16.9078 15.7016 17.0056 16.5895 16.9046 17.4523C16.8239 18.3085 16.5548 19.1025 16.0972 19.8344C15.6397 20.5662 15.0005 21.2225 14.1798 21.8032C13.3591 22.384 12.3705 22.8622 11.214 23.238C9.93576 23.6533 8.73998 23.8736 7.62663 23.8989C6.51328 23.9241 5.68754 23.8335 5.1494 23.6271C5.05762 23.2755 4.95291 22.8497 4.83527 22.3496C4.73792 21.8429 4.63727 21.326 4.53333 20.799C4.44309 20.2451 4.35943 19.7115 4.28237 19.1982C4.20532 18.6849 4.15133 18.2426 4.12042 17.8713L4.91169 17.6142L7.6131 21.6826Z" fill="white"/>
</svg>
