<svg width="20" height="20" viewBox="0 0 20 20" fill="none" xmlns="http://www.w3.org/2000/svg">
<path d="M10.0001 1.66351C13.375 1.66351 16.1306 4.3258 16.2466 7.70439L16.2501 7.91351V11.3277L17.4001 13.9577C17.4576 14.0893 17.4873 14.2314 17.4873 14.375C17.4873 14.9503 17.0209 15.4167 16.4456 15.4167L12.5001 15.4179C12.5001 16.7986 11.3808 17.9179 10.0001 17.9179C8.66865 17.9179 7.58033 16.8771 7.5043 15.5648L7.49967 15.416L3.56244 15.4167C3.41966 15.4167 3.2784 15.3873 3.14744 15.3304C2.61977 15.1012 2.37781 14.4877 2.60701 13.96L3.75005 11.3284V7.91342C3.75055 4.4511 6.54346 1.66351 10.0001 1.66351ZM11.2497 15.416L8.75005 15.4179C8.75005 16.1083 9.3097 16.6679 10.0001 16.6679C10.6498 16.6679 11.1838 16.1722 11.2443 15.5383L11.2497 15.416ZM10.0001 2.91351C7.23325 2.91351 5.00045 5.14206 5.00005 7.91351V11.5882L3.88007 14.1667H16.1272L15.0001 11.589L15.0001 7.92423L14.997 7.73656C14.9045 5.042 12.7014 2.91351 10.0001 2.91351Z" fill="white"/>
</svg>
