<svg width="20" height="20" viewBox="0 0 20 20" fill="none" xmlns="http://www.w3.org/2000/svg">
<path d="M9 17H10V18H9V17ZM9.5 2C9.91146 2 10.3073 2.05469 10.6875 2.16406C11.0729 2.26823 11.4323 2.41927 11.7656 2.61719C12.099 2.8099 12.4036 3.04427 12.6797 3.32031C12.9557 3.59635 13.1901 3.90104 13.3828 4.23438C13.5807 4.56771 13.7318 4.92708 13.8359 5.3125C13.9453 5.69271 14 6.08854 14 6.5C14 6.9375 13.9427 7.33333 13.8281 7.6875C13.7135 8.04167 13.5625 8.36719 13.375 8.66406C13.1875 8.95573 12.974 9.22656 12.7344 9.47656C12.4948 9.72656 12.25 9.96875 12 10.2031C11.75 10.4375 11.5052 10.6719 11.2656 10.9062C11.026 11.1354 10.8125 11.3802 10.625 11.6406C10.4375 11.901 10.2865 12.1823 10.1719 12.4844C10.0573 12.7865 10 13.125 10 13.5V15H9V13.5C9 13.0625 9.05729 12.6667 9.17188 12.3125C9.28646 11.9583 9.4375 11.6354 9.625 11.3438C9.8125 11.0469 10.026 10.776 10.2656 10.5312C10.5052 10.2812 10.75 10.0391 11 9.80469C11.25 9.57031 11.4948 9.33594 11.7344 9.10156C11.974 8.86719 12.1875 8.61979 12.375 8.35938C12.5625 8.09896 12.7135 7.81771 12.8281 7.51562C12.9427 7.21354 13 6.875 13 6.5C13 6.01562 12.9062 5.5625 12.7188 5.14062C12.5365 4.71354 12.2865 4.34375 11.9688 4.03125C11.6562 3.71354 11.2865 3.46354 10.8594 3.28125C10.4375 3.09375 9.98438 3 9.5 3C9.01562 3 8.5599 3.09375 8.13281 3.28125C7.71094 3.46354 7.34115 3.71354 7.02344 4.03125C6.71094 4.34375 6.46094 4.71354 6.27344 5.14062C6.09115 5.5625 6 6.01562 6 6.5H5C5 6.08854 5.05208 5.69271 5.15625 5.3125C5.26562 4.92708 5.41667 4.56771 5.60938 4.23438C5.80729 3.90104 6.04427 3.59635 6.32031 3.32031C6.59635 3.04427 6.90104 2.8099 7.23438 2.61719C7.56771 2.41927 7.92448 2.26823 8.30469 2.16406C8.6901 2.05469 9.08854 2 9.5 2Z" fill="white"/>
</svg>
