<svg width="20" height="20" viewBox="0 0 20 20" fill="none" xmlns="http://www.w3.org/2000/svg">
<path d="M11.6668 2.29167C8.33011 2.29167 5.62516 4.99662 5.62516 8.33334C5.62516 9.77657 6.13121 11.1016 6.97554 12.1407L2.89155 16.2247C2.64748 16.4688 2.64748 16.8645 2.89155 17.1086C3.11344 17.3305 3.46066 17.3507 3.70534 17.1691L3.77544 17.1086L7.85948 13.0246C8.89857 13.869 10.2236 14.375 11.6668 14.375C15.0036 14.375 17.7085 11.6701 17.7085 8.33334C17.7085 4.99662 15.0036 2.29167 11.6668 2.29167ZM11.6668 3.54167C14.3132 3.54167 16.4585 5.68697 16.4585 8.33334C16.4585 10.9797 14.3132 13.125 11.6668 13.125C9.02047 13.125 6.87516 10.9797 6.87516 8.33334C6.87516 5.68697 9.02047 3.54167 11.6668 3.54167Z" fill="#004578"/>
</svg>
